<?xml version="1.0" encoding="UTF-8"?>
<svg width="512pt" height="512pt" version="1.1" viewBox="0 0 512 512" xmlns="http://www.w3.org/2000/svg">
 <path d="m399.08 303.84c-2.9609 0-5.8398 0.23828-8.6406 0.67969-5.0391-13.199-14.281-24.16-25.879-31.52 12.398-11.602 19.602-27.879 19.602-45.078 0-34.039-27.68-61.723-61.723-61.723-26.238 0-49.441 16.84-58.082 40.961-15.922-9.9609-34.602-15.719-54.359-15.719-56.762 0-102.92 46.16-102.92 102.92 0 3.2812 0.19922 6.5586 0.51953 9.7578-28.879 2.6797-51.598 27.039-51.598 56.637 0 31.398 25.52 56.918 56.918 56.918h286.16c31.398 0 56.918-25.52 56.918-56.918 0-31.398-25.52-56.918-56.918-56.918zm-76.641-126.04c27.602 0 50.078 22.48 50.078 50.078 0 15.441-7.1992 29.922-19.281 39.441-7.2383-2.8008-15.039-4.3594-23.121-4.3594-7.3203 0-14.359 1.1992-21.121 3.5195-5.8789-21.039-18.281-39.16-34.68-52.32 6.0391-21.238 25.719-36.359 48.121-36.359zm76.641 228.24h-286.16c-24.961 0-45.281-20.32-45.281-45.281 0-24.961 20.32-45.281 45.281-45.281h1.0781c10.68 0.23828 20.918 4.3203 28.918 11.398 2.3984 2.1602 6.0781 1.9219 8.2383-0.48047 2.1211-2.3984 1.9219-6.0781-0.48047-8.2383-8.7617-7.7617-19.68-12.602-31.32-13.961-0.35937-3.2383-0.60156-6.5586-0.60156-9.8789 0-50.32 40.922-91.281 91.281-91.281 43 0 80.559 30.48 89.281 72.562 1.3203 6.0781 1.9609 12.398 1.9609 18.719 0 3.1992 2.6016 5.8398 5.8398 5.8398 3.1992 0 5.8398-2.6016 5.8398-5.8398 0-5.5195-0.44141-11-1.3203-16.359 5.8789-2.1992 12.082-3.3984 18.48-3.3984 23.48 0 44.398 15.719 50.879 38.242 1.3594 4.8008 2.0781 9.7188 2.0781 14.68 0 3.1992 2.6016 5.8398 5.8398 5.8398 3.1992 0 5.8398-2.6016 5.8398-5.8398 0-3.9219-0.39844-7.8398-1.1211-11.719 1.8008-0.19922 3.6406-0.32031 5.5195-0.32031 24.961 0 45.281 20.32 45.281 45.281-0.078126 25-20.398 45.32-45.359 45.32z"/>
 <path d="m322.44 145.88c3.1992 0 5.8398-2.6016 5.8398-5.8398v-39.922c0-3.1992-2.6016-5.8398-5.8398-5.8398-3.1992 0-5.8398 2.6016-5.8398 5.8398v39.922c0 3.2383 2.6016 5.8398 5.8398 5.8398z"/>
 <path d="m273.48 154.76c1.0781 1.8789 3.0391 2.9219 5.0391 2.9219 1 0 2-0.23828 2.9219-0.80078 2.8008-1.6016 3.7617-5.1602 2.1211-7.9609l-19.961-34.602c-1.6016-2.8008-5.1602-3.7617-7.9609-2.1211-2.8008 1.6016-3.7617 5.1602-2.1211 7.9609z"/>
 <path d="m208.84 169.08 34.602 19.961c0.92188 0.51953 1.9219 0.80078 2.9219 0.80078 2 0 3.9609-1.0391 5.0391-2.9219 1.6016-2.8008 0.64062-6.3594-2.1211-7.9609l-34.602-19.961c-2.8008-1.6016-6.3594-0.64062-7.9609 2.1211-1.6016 2.7617-0.64062 6.3594 2.1211 7.9609z"/>
 <path d="m395.56 276.84 34.602 19.961c0.92188 0.51953 1.9219 0.76172 2.9219 0.76172 2 0 3.9609-1.0391 5.0391-2.9219 1.6016-2.8008 0.64062-6.3594-2.1211-7.9609l-34.602-19.961c-2.7617-1.6016-6.3594-0.64062-7.9609 2.1211-1.6016 2.8398-0.67969 6.3984 2.1211 8z"/>
 <path d="m404.44 227.88c0 3.1992 2.6016 5.8398 5.8398 5.8398h39.922c3.1992 0 5.8398-2.6016 5.8398-5.8398 0-3.2383-2.6016-5.8398-5.8398-5.8398h-39.922c-3.2383 0.039062-5.8398 2.6406-5.8398 5.8398z"/>
 <path d="m398.48 189.8c1 0 2-0.23828 2.9219-0.80078l34.602-19.961c2.8008-1.6016 3.7617-5.1602 2.1211-7.9609-1.6016-2.8008-5.1992-3.7617-7.9609-2.1211l-34.602 19.961c-2.8008 1.6016-3.7617 5.1602-2.1211 7.9609 1.0781 1.8789 3.0391 2.9219 5.0391 2.9219z"/>
 <path d="m363.44 156.88c0.92188 0.51953 1.9219 0.80078 2.9219 0.80078 2 0 3.9609-1.0391 5.0391-2.9219l19.961-34.602c1.6016-2.8008 0.64062-6.3594-2.1211-7.9609-2.7617-1.6016-6.3594-0.64062-7.9609 2.1211l-19.961 34.602c-1.6406 2.8008-0.67969 6.3594 2.1211 7.9609z"/>
</svg>
